<?xml version="1.0" encoding="UTF-8" standalone="no"?>
<!-- Generator: Adobe Illustrator 19.0.0, SVG Export Plug-In . SVG Version: 6.00 Build 0)  -->

<svg
   xmlns:dc="http://purl.org/dc/elements/1.1/"
   xmlns:cc="http://creativecommons.org/ns#"
   xmlns:rdf="http://www.w3.org/1999/02/22-rdf-syntax-ns#"
   xmlns:svg="http://www.w3.org/2000/svg"
   xmlns="http://www.w3.org/2000/svg"
   xmlns:sodipodi="http://sodipodi.sourceforge.net/DTD/sodipodi-0.dtd"
   xmlns:inkscape="http://www.inkscape.org/namespaces/inkscape"
   version="1.1"
   id="Layer_1"
   x="0px"
   y="0px"
   viewBox="0 0 512.00002 512"
   xml:space="preserve"
   inkscape:version="0.91 r13725"
   sodipodi:docname="logo_traintrain_seul.svg"
   width="512"
   height="512"><metadata
     id="metadata83"><rdf:RDF><cc:Work
         rdf:about=""><dc:format>image/svg+xml</dc:format><dc:type
           rdf:resource="http://purl.org/dc/dcmitype/StillImage" /><dc:title></dc:title></cc:Work></rdf:RDF></metadata><defs
     id="defs81" /><sodipodi:namedview
     pagecolor="#ffffff"
     bordercolor="#666666"
     borderopacity="1"
     objecttolerance="10"
     gridtolerance="10"
     guidetolerance="10"
     inkscape:pageopacity="0"
     inkscape:pageshadow="2"
     inkscape:window-width="1563"
     inkscape:window-height="935"
     id="namedview79"
     showgrid="false"
     fit-margin-top="0"
     fit-margin-left="0"
     fit-margin-right="0"
     fit-margin-bottom="0"
     inkscape:zoom="0.60836042"
     inkscape:cx="87.81651"
     inkscape:cy="113.66636"
     inkscape:window-x="0"
     inkscape:window-y="32"
     inkscape:window-maximized="0"
     inkscape:current-layer="Layer_1" /><g
     id="g49"
     transform="translate(1.60028,0)" /><g
     id="g51"
     transform="translate(1.60028,0)" /><g
     id="g53"
     transform="translate(1.60028,0)" /><g
     id="g55"
     transform="translate(1.60028,0)" /><g
     id="g57"
     transform="translate(1.60028,0)" /><g
     id="g59"
     transform="translate(1.60028,0)" /><g
     id="g61"
     transform="translate(1.60028,0)" /><g
     id="g63"
     transform="translate(1.60028,0)" /><g
     id="g65"
     transform="translate(1.60028,0)" /><g
     id="g67"
     transform="translate(1.60028,0)" /><g
     id="g69"
     transform="translate(1.60028,0)" /><g
     id="g71"
     transform="translate(1.60028,0)" /><g
     id="g73"
     transform="translate(1.60028,0)" /><g
     id="g75"
     transform="translate(1.60028,0)" /><g
     id="g77"
     transform="translate(1.60028,0)" /><g
     id="g4219"><circle
       id="circle3"
       r="256"
       cy="256"
       cx="256"
       style="fill:#4ab8a1" /><g
       id="g5"><path
         id="path7"
         d="m 105.808,511.5 c -1.132,0 -2.28,-0.244 -3.372,-0.752 -4.004,-1.868 -5.74,-6.624 -3.876,-10.628 l 78,-167.5 c 1.864,-4.004 6.624,-5.752 10.628,-3.88 4.004,1.868 5.74,6.624 3.876,10.628 l -78,167.5 c -1.356,2.92 -4.244,4.632 -7.256,4.632 z"
         style="fill:#242424"
         inkscape:connector-curvature="0" /><path
         id="path9"
         d="m 407.816,511.5 c -2.988,0 -5.852,-1.68 -7.224,-4.556 l -80,-167.5 c -1.908,-3.988 -0.22,-8.76 3.772,-10.672 3.984,-1.9 8.756,-0.212 10.664,3.772 l 80,167.5 c 1.908,3.988 0.22,8.76 -3.772,10.668 -1.108,0.54 -2.28,0.788 -3.44,0.788 z"
         style="fill:#242424"
         inkscape:connector-curvature="0" /><path
         id="path11"
         d="m 331.812,360 -152,0 c -4.416,0 -8,-3.584 -8,-8 0,-4.416 3.584,-8 8,-8 l 152,0 c 4.416,0 8,3.584 8,8 0,4.416 -3.584,8 -8,8 z"
         style="fill:#242424"
         inkscape:connector-curvature="0" /><path
         id="path13"
         d="m 347.812,392 -184,0 c -4.416,0 -8,-3.584 -8,-8 0,-4.416 3.584,-8 8,-8 l 184,0 c 4.416,0 8,3.584 8,8 0,4.416 -3.584,8 -8,8 z"
         style="fill:#242424"
         inkscape:connector-curvature="0" /><path
         id="path15"
         d="m 363.812,424 -212,0 c -4.416,0 -8,-3.584 -8,-8 0,-4.416 3.584,-8 8,-8 l 212,0 c 4.416,0 8,3.584 8,8 0,4.416 -3.584,8 -8,8 z"
         style="fill:#242424"
         inkscape:connector-curvature="0" /><path
         id="path17"
         d="m 375.812,456 -244,0 c -4.416,0 -8,-3.584 -8,-8 0,-4.416 3.584,-8 8,-8 l 244,0 c 4.416,0 8,3.584 8,8 0,4.416 -3.584,8 -8,8 z"
         style="fill:#242424"
         inkscape:connector-curvature="0" /><path
         id="path19"
         d="m 391.812,492 -268,0 c -4.416,0 -8,-3.584 -8,-8 0,-4.416 3.584,-8 8,-8 l 268,0 c 4.416,0 8,3.584 8,8 0,4.416 -3.584,8 -8,8 z"
         style="fill:#242424"
         inkscape:connector-curvature="0" /></g><path
       d="m 147.812,196 0,80 c 0,56 64,92 108,92 44,0 108,-36 108,-92 l 0,-80 -216,0 z"
       style="fill:#ffd464"
       id="SVGCleanerId_0"
       inkscape:connector-curvature="0" /><g
       id="g22"><path
         d="m 147.812,196 0,80 c 0,56 64,92 108,92 44,0 108,-36 108,-92 l 0,-80 -216,0 z"
         style="fill:#ffd464"
         id="SVGCleanerId_0_1_"
         inkscape:connector-curvature="0" /></g><g
       id="g25"><path
         id="path27"
         d="m 315.812,80 c -1.024,0 -2.048,-0.392 -2.828,-1.172 L 306.156,72 205.468,72 198.64,78.828 c -1.564,1.564 -4.092,1.564 -5.656,0 -1.564,-1.564 -1.564,-4.092 0,-5.656 l 9.172,-9.172 107.312,0 9.172,9.172 c 1.564,1.564 1.564,4.092 0,5.656 -0.78,0.78 -1.804,1.172 -2.828,1.172 z"
         style="fill:#263740"
         inkscape:connector-curvature="0" /><path
         id="path29"
         d="m 255.812,96 c -2.208,0 -4,-1.792 -4,-4 l 0,-24 c 0,-2.208 1.792,-4 4,-4 2.208,0 4,1.792 4,4 l 0,24 c 0,2.208 -1.792,4 -4,4 z"
         style="fill:#263740"
         inkscape:connector-curvature="0" /></g><path
       id="path31"
       d="m 351.812,124 0,152 c 0,53.504 -58.416,88.728 -102,91.756 2.032,0.14 4.04,0.244 6,0.244 44,0 108,-36 108,-92 l 0,-152 -12,0 z"
       style="fill:#f2c95f"
       inkscape:connector-curvature="0" /><path
       id="path33"
       d="m 332.212,92 -76.4,0 -76.396,0 c -17.352,0 -31.604,14.328 -31.604,32 l 0,75.16 c 14.952,42.56 69.028,68.84 108,68.84 38.972,0 93.048,-26.28 108,-68.84 l 0,-75.16 c 0,-17.672 -14.248,-32 -31.6,-32 z"
       style="fill:#263740"
       inkscape:connector-curvature="0" /><path
       id="path35"
       d="m 255.812,252 c -33.476,0 -78.684,-22.772 -92,-55.748 l 0,-72.252 c 0,-8.824 7,-16 15.604,-16 l 152.788,0 c 8.604,0 15.604,7.176 15.604,16 l 0,72.252 C 334.496,229.228 289.288,252 255.812,252 Z"
       style="fill:#f5f5f5"
       inkscape:connector-curvature="0" /><path
       id="path37"
       d="m 331.812,128 c 0,6.6 -5.4,12 -12,12 l -128,0 c -6.6,0 -12,-5.4 -12,-12 l 0,0 c 0,-6.6 5.4,-12 12,-12 l 128,0 c 6.604,0 12,5.4 12,12 l 0,0 z"
       style="fill:#263740"
       inkscape:connector-curvature="0" /><rect
       id="rect39"
       height="4"
       width="8"
       style="fill:#1e2c33"
       y="88"
       x="251.812" /><path
       id="path41"
       d="m 227.812,284 -48,0 c -7.412,0 -13.632,-5.132 -15.428,-12 -0.336,1.288 -0.572,22.608 -0.572,24 0,8.8 7.2,16 16,16 l 48,0 c 4.4,0 8,-3.6 8,-8 l 0,-12 c 0,-4.4 -3.6,-8 -8,-8 z"
       style="fill:#263740"
       inkscape:connector-curvature="0" /><path
       id="path43"
       d="m 179.812,304 c -4.412,0 -8,-3.584 -8,-8 0,-0.712 0.02,-2.764 0.056,-5.364 2.5,0.888 5.18,1.364 7.944,1.364 l 48,0 0,12 -48,0 z"
       style="fill:#f5f5f5"
       inkscape:connector-curvature="0" /><path
       id="path45"
       d="m 283.812,284 48,0 c 7.416,0 13.632,-5.132 15.428,-12 0.336,1.288 0.572,22.608 0.572,24 0,8.8 -7.2,16 -16,16 l -48,0 c -4.4,0 -8,-3.6 -8,-8 l 0,-12 c 0,-4.4 3.604,-8 8,-8 z"
       style="fill:#263740"
       inkscape:connector-curvature="0" /><path
       id="path47"
       d="m 331.812,304 c 4.416,0 8,-3.584 8,-8 0,-0.712 -0.02,-2.764 -0.056,-5.364 -2.5,0.884 -5.176,1.364 -7.944,1.364 l -48,0 0,12 48,0 z"
       style="fill:#f5f5f5"
       inkscape:connector-curvature="0" /></g></svg>